<svg width="24" height="24" viewBox="0 0 24 24" fill="none" xmlns="http://www.w3.org/2000/svg">
<g clip-path="url(#clip0_580_9572)">
<path d="M23.5204 2.80172C23.5204 2.80172 23.4604 2.90172 23.4404 2.96172C23.4804 2.91172 23.5304 2.87172 23.5704 2.83172C23.6104 2.79172 23.6504 2.76172 23.6904 2.72172C23.7604 2.65172 23.8304 2.59172 23.8704 2.51172C23.7904 2.56172 23.7104 2.61172 23.6304 2.68172C23.5904 2.71172 23.5504 2.75172 23.5204 2.79172V2.80172Z" fill="#E1BAB5"/>
<path d="M0.440337 16.4185L0.480337 16.4885C0.480337 16.4885 0.350337 16.4284 0.380337 16.4885C0.430337 16.6084 0.510337 16.5585 0.580337 16.5985C0.650337 16.6685 0.720337 16.7485 0.750337 16.8185C0.780337 16.9485 0.940337 17.0185 1.04034 17.1085C0.990337 17.1285 0.880337 17.0085 0.830337 17.0885C1.03034 17.1585 1.06034 17.3385 1.23034 17.4385L1.52034 17.8185C1.66034 17.9685 1.79034 18.1285 1.95034 18.2685C2.52034 18.7685 3.11034 19.2285 3.69034 19.7185L4.01034 19.9885C4.11034 20.0485 4.17034 20.1985 4.31034 20.2085C4.26034 20.1385 4.14034 20.0585 4.19034 20.0085L4.52034 20.2685L4.82034 20.5385L4.78034 20.5885C4.78034 20.5885 4.78034 20.6185 4.79034 20.6285C4.79034 20.6285 4.79034 20.6285 4.79034 20.6385C4.79034 20.6385 4.79034 20.6485 4.80034 20.6585C4.80034 20.6685 4.82034 20.6785 4.82034 20.6885C4.85034 20.7285 4.89034 20.7684 4.93034 20.8085C5.01034 20.8885 5.10034 20.9685 5.20034 21.0385C5.39034 21.1885 5.61034 21.3385 5.81034 21.5285C5.63034 21.2685 5.50034 21.0585 5.89034 21.3685C6.02034 21.4785 6.18034 21.5984 6.32034 21.7185C6.46034 21.8385 6.60034 21.9485 6.69034 22.0485C6.89034 22.2385 7.09034 22.4085 7.29034 22.5685C7.49034 22.7285 7.68034 22.8785 7.88034 23.0485C8.12034 23.2385 8.35034 23.4285 8.59034 23.6085C8.62034 23.6285 8.65034 23.6485 8.68034 23.6785C8.68034 23.6785 8.70034 23.6885 8.70034 23.6985C8.70034 23.6985 8.70034 23.6785 8.71034 23.6785C8.71034 23.6585 8.73034 23.6485 8.74034 23.6285C8.78034 23.5685 8.82034 23.5085 8.86034 23.4385C8.94034 23.3085 9.01034 23.1685 9.04034 22.9685C9.23034 22.6784 9.42034 22.3685 9.60034 21.9685L9.84034 21.4985C9.94034 21.3285 10.0303 21.1485 10.1203 20.9685C10.2103 20.7885 10.3003 20.5985 10.4003 20.4085C10.4503 20.3185 10.4903 20.2285 10.5403 20.1385C10.5903 20.0485 10.6403 19.9585 10.6903 19.8785C10.7403 19.7885 10.7903 19.7085 10.8403 19.6185C10.8703 19.5785 10.8903 19.5385 10.9203 19.4885C10.9303 19.4685 10.9503 19.4485 10.9603 19.4285L10.9803 19.3985H10.9903V19.3885C11.0403 19.2785 11.1303 19.1685 11.1503 19.0685C11.1603 19.0085 11.1903 18.9585 11.2203 18.8985C11.2403 18.8685 11.2503 18.8385 11.2703 18.8185C11.2903 18.7885 11.3003 18.7685 11.3203 18.7385C11.3903 18.6285 11.4403 18.5185 11.4203 18.4085C11.6103 18.2485 11.7003 17.9685 11.8703 17.7685C11.9203 17.7085 11.9703 17.6485 12.0103 17.5885C12.0603 17.5285 12.1003 17.4685 12.1503 17.4085C12.2403 17.2885 12.3203 17.1585 12.4003 17.0285C12.5503 16.7685 12.6803 16.4884 12.7903 16.2084C12.8403 16.1284 12.8903 16.0584 12.9303 15.9784L13.1403 15.7385C13.2503 15.5885 13.3503 15.4285 13.4003 15.2585L13.5503 15.0385L13.6103 14.9985C13.6903 14.9685 13.7303 14.9185 13.7503 14.8485C13.7803 14.7885 13.7903 14.7185 13.8303 14.6585L13.9103 14.4685C13.9803 14.2885 14.2603 14.1484 14.2003 13.9384V13.9085L14.2403 13.8785C14.3503 13.8485 14.4303 13.7284 14.4903 13.6185C14.5403 13.5184 14.6003 13.4285 14.6603 13.3385C14.7203 13.2485 14.7803 13.1585 14.8403 13.0684L15.1903 12.5785C15.2503 12.4885 15.3203 12.3985 15.3903 12.3085C15.4203 12.2585 15.4603 12.2185 15.4903 12.1685C15.5203 12.1185 15.5603 12.0785 15.6003 12.0285C15.5003 12.0285 15.4303 12.1784 15.3503 12.1884L15.4003 12.0585L15.4803 11.9485C15.6003 11.7885 15.7203 11.6285 15.7203 11.4585L15.8403 11.2985C15.907 11.2985 15.8803 11.3985 15.7603 11.5985C15.8403 11.6585 15.9703 11.5785 16.0403 11.4685C16.1403 11.3085 16.2503 11.1484 16.3603 10.9885C16.4703 10.8385 16.5903 10.6784 16.7103 10.5285L16.8203 10.3685C16.8903 10.2284 17.0203 10.1085 17.0603 9.96845C17.0903 9.90845 17.1503 9.85845 17.2003 9.80845C17.2303 9.78845 17.2503 9.75845 17.2703 9.72845C17.2903 9.69845 17.3103 9.66845 17.3203 9.63845C17.4303 9.56845 17.5203 9.46845 17.6003 9.35845L17.7903 9.06845H17.7703L17.6803 9.15845C17.6803 9.15845 17.6603 9.14845 17.6503 9.13845C17.6503 9.13845 17.6803 9.05845 17.7103 9.00845L17.9303 8.74845L17.9503 8.71845L17.9703 8.68845L18.0503 8.71845C18.0603 8.60845 18.1303 8.54845 18.2103 8.49845C18.2903 8.44845 18.3703 8.39845 18.4103 8.30845C18.4403 8.22845 18.6103 8.17845 18.5903 8.04845C18.5203 8.11845 18.4503 8.18845 18.3703 8.26845C18.3703 8.17845 18.5203 8.10845 18.4803 8.01845C18.3503 8.14845 18.3003 8.05845 18.2003 8.09845C18.2603 7.88845 18.4203 7.69845 18.6103 7.52845L18.8203 7.29845C18.8903 7.22845 18.9503 7.15845 19.0003 7.07845C19.0603 7.00845 19.1103 6.92845 19.1503 6.84845L19.2303 6.75845L19.5103 6.46845C19.6303 6.42845 20.0803 6.06845 20.0803 5.99845C20.0803 5.87845 20.1203 5.75845 20.1803 5.61845C20.3203 5.47845 20.4303 5.32845 20.5203 5.16845C20.6103 5.00845 20.7203 4.82845 20.9203 4.72845C20.9503 4.69845 20.9703 4.66845 20.9803 4.64845C20.9803 4.62845 20.9803 4.60845 20.9703 4.58845L21.0203 4.53845L21.0403 4.55845C21.3003 4.40845 21.5303 4.21845 21.7303 3.98845C21.8403 3.85845 21.9503 3.72845 22.0703 3.60845C22.1303 3.54845 22.1903 3.48845 22.2603 3.43845C22.3303 3.38845 22.4003 3.32845 22.4803 3.28845C22.6203 3.20845 22.6103 3.07845 22.6503 2.97845C22.6603 2.93845 22.6503 2.92845 22.6003 2.94845C22.5203 2.97845 22.3703 3.10845 22.2303 3.24845C22.1603 3.31845 22.0903 3.39845 22.0403 3.45845C21.9903 3.52845 21.9503 3.58845 21.9403 3.62845L21.6903 3.85845C21.6903 3.85845 21.6603 3.88845 21.6403 3.89845H21.6203C21.6803 3.75845 21.8003 3.60845 21.8303 3.45845C21.5803 3.59845 21.3103 3.65845 21.1403 3.98845C21.1103 4.04845 20.9903 4.13845 20.9303 4.16845C20.8303 4.20845 20.7603 4.26845 20.7003 4.32845C20.6403 4.39845 20.6003 4.46845 20.5703 4.54845L20.2303 4.87845L20.1803 4.91845C20.0703 4.94845 20.0003 5.04845 19.9203 5.13845L19.8503 5.16845C19.8503 5.10845 19.9203 5.04845 19.9703 4.99845C20.1603 4.80845 20.3303 4.60845 20.5003 4.40845L20.6203 4.25845L20.7503 4.10845C20.8403 4.00845 20.9203 3.90845 21.0103 3.81845C21.0103 3.90845 21.0703 3.90845 21.1703 3.80845C21.2603 3.71845 21.2303 3.67845 21.1703 3.67845L21.2603 3.55845C21.3903 3.40845 21.5803 3.28845 21.6703 3.11845C21.7903 2.98845 21.9203 2.85845 22.0403 2.72845C22.1503 2.62845 22.2703 2.53845 22.3703 2.43845C22.4703 2.33845 22.6503 2.24845 22.6203 2.11845C22.6803 2.05845 22.7603 2.00845 22.7703 1.93845C22.7003 1.88845 22.6503 2.05845 22.5603 2.04845C22.4803 2.04845 22.4403 2.09845 22.4103 2.20845L21.9003 2.66845L21.5903 2.93845C21.4003 2.99845 21.3203 3.19845 21.1703 3.30845C21.1003 3.37845 21.0203 3.43845 21.0703 3.49845L21.0903 3.52845C21.0903 3.52845 21.0703 3.55845 21.0503 3.56845L20.8303 3.74845C20.6703 3.77845 20.6403 3.73845 20.8303 3.55845C20.8503 3.53845 20.8603 3.50845 20.8803 3.47845C20.9803 3.35845 21.1103 3.25845 21.2203 3.14845C21.2803 3.09845 21.3403 3.03845 21.3903 2.97845C21.4403 2.91845 21.4903 2.85845 21.5403 2.79845C21.7503 2.55845 22.0103 2.34845 22.2103 2.09845C22.2803 2.03845 22.3703 1.97845 22.3803 1.86845C22.2303 1.97845 22.1103 2.07845 22.0103 2.19845C22.0103 2.19845 22.0303 2.19845 22.0403 2.19845C22.0403 2.19845 22.0203 2.19845 22.0103 2.19845L21.8003 2.36845C21.6803 2.40845 21.5903 2.55845 21.4703 2.60845C21.5903 2.45845 21.7903 2.35845 21.8903 2.15845C21.6703 2.28845 21.5303 2.46845 21.3603 2.58845L21.3403 2.56845C21.3003 2.56845 21.2603 2.56845 21.2203 2.59845C21.1803 2.61845 21.1403 2.65845 21.0903 2.69845L21.0703 2.67845C21.1303 2.62845 21.1803 2.56845 21.2403 2.51845L21.4103 2.35845C21.7503 2.05845 22.1003 1.78845 22.3903 1.43845C22.5403 1.30845 22.6903 1.16845 22.8403 1.03845C22.9903 0.92845 23.1003 0.76845 23.2703 0.66845C23.3603 0.60845 23.4503 0.49845 23.3003 0.50845L22.9903 0.77845C22.9103 0.83845 22.8503 0.90845 22.8003 0.98845C22.7003 1.04845 22.6503 1.14845 22.5703 1.22845C22.4603 1.24845 22.3603 1.30845 22.2603 1.38845C22.1603 1.46845 22.0703 1.55845 21.9703 1.61845C21.8203 1.65845 21.7103 1.85845 21.5603 1.89845L21.6403 1.80845C21.7703 1.66845 21.9203 1.52845 22.0203 1.37845C22.1703 1.23845 22.3303 1.10845 22.5403 0.92845C22.3903 0.98845 22.2803 1.06845 22.1703 1.15845C22.0603 1.24845 21.9703 1.33845 21.8703 1.41845V1.31845C21.8903 1.28845 21.9303 1.24845 21.9303 1.24845C21.8303 1.21845 21.8303 1.17845 21.8703 1.11845C21.8903 1.08845 21.9203 1.05845 21.9603 1.02845C22.0003 0.99845 22.0403 0.96845 22.0803 0.93845C22.1203 0.90845 22.1703 0.85845 22.1303 0.81845C22.0503 0.87845 21.9703 0.92845 21.8903 0.98845C21.8103 1.04845 21.7303 1.10845 21.6503 1.16845L21.0303 1.72845C21.1203 1.58845 21.1803 1.44845 21.3303 1.31845C21.4003 1.23845 21.5203 1.18845 21.5403 1.07845C21.4303 1.09845 21.3603 1.20845 21.2803 1.26845C21.1903 1.33845 21.1003 1.45845 21.0203 1.40845L20.9803 1.35845L21.1803 1.16845C21.1803 1.16845 21.3403 1.05845 21.2603 1.02845C21.1903 1.00845 21.1203 1.04845 21.0803 1.15845L20.9503 1.32845C20.9503 1.32845 20.8703 1.35845 20.8203 1.39845L20.7403 1.41845C20.6103 1.44845 20.5803 1.50845 20.6003 1.58845C20.6003 1.58845 20.5003 1.66845 20.4603 1.70845C20.4103 1.74845 20.3703 1.78845 20.3203 1.83845C20.2403 1.91845 20.1303 2.05845 20.0903 2.04845C19.9703 2.00845 19.8703 2.15845 19.7703 2.23845C19.6403 2.23845 19.5203 2.33845 19.4803 2.46845C19.4503 2.55845 19.3803 2.61845 19.3403 2.69845C19.2903 2.74845 19.2303 2.79845 19.1803 2.84845C19.1303 2.89845 19.0703 2.93845 19.0103 2.96845C18.8403 3.05845 18.7103 3.19845 18.6103 3.35845C18.6103 3.35845 18.5203 3.39845 18.4803 3.44845C18.4803 3.44845 18.4403 3.46845 18.4303 3.48845C18.3003 3.53845 18.2003 3.64845 18.1003 3.77845C18.0803 3.78845 18.0703 3.80845 18.0503 3.81845C17.9803 3.81845 17.9403 3.91845 17.8803 3.94845C17.6403 4.09845 17.4803 4.34845 17.2703 4.53845C17.2703 4.53845 17.2503 4.53845 17.2503 4.51845L17.2903 4.46845C17.3903 4.36845 17.4503 4.26845 17.4903 4.16845L17.5103 4.14845L17.5303 4.12845C17.5803 4.14845 17.6503 4.11845 17.6903 4.03845C17.8303 3.79845 18.0903 3.64845 18.2403 3.42845C18.3103 3.32845 18.4903 3.27845 18.4803 3.14845C18.6937 3.07512 18.7903 2.94512 18.7703 2.75845C18.5003 3.02845 18.2303 3.29845 17.9703 3.56845C17.9003 3.63845 17.8403 3.68845 17.7603 3.72845C17.6003 3.81845 17.6603 3.85845 17.6903 3.89845L17.6003 4.00845L16.8703 4.77845L16.7403 4.90845C16.7403 4.90845 16.6603 4.99845 16.6203 5.03845C16.4903 5.17845 16.3703 5.31845 16.2403 5.45845C16.2003 5.49845 16.1303 5.56845 16.1203 5.56845C16.0103 5.45845 15.9203 5.68845 15.8303 5.76845C15.7503 5.82845 15.6803 5.95845 15.6203 5.99845C15.5503 6.03845 15.5003 6.07845 15.4603 6.11845C15.4203 6.15845 15.3903 6.19845 15.3703 6.24845C15.3203 6.33845 15.3103 6.42845 15.2803 6.51845L15.1903 6.61845C15.1303 6.61845 15.0603 6.65845 14.9903 6.73845C14.9003 6.75845 14.8503 6.85845 14.7803 6.93845L14.4603 7.31845C14.4603 7.31845 14.4103 7.37845 14.3803 7.40845L14.3003 7.50845L14.1403 7.69845C13.8803 7.93845 13.6603 8.22845 13.4503 8.51845L13.4003 8.56845C13.4003 8.56845 13.3403 8.61845 13.3103 8.64845C13.2803 8.67845 13.2603 8.70845 13.2303 8.73845C13.1803 8.79845 13.1303 8.86845 13.0903 8.93845C13.0003 9.06845 12.9203 9.20845 12.8103 9.32845C12.8103 9.32845 12.7903 9.33845 12.7903 9.34845C12.6803 9.43845 12.5903 9.54845 12.5103 9.66845C12.4703 9.72845 12.4203 9.78845 12.3803 9.83845C12.3403 9.89845 12.2903 9.95845 12.2503 10.0185C12.2503 10.0185 12.2203 10.0385 12.2203 10.0585C12.1803 10.0985 12.1503 10.1385 12.1203 10.1785C11.9503 10.3785 11.8003 10.5885 11.6503 10.7985C11.6203 10.8185 11.6003 10.8385 11.5903 10.8685C11.4903 10.9784 11.4003 11.0984 11.3103 11.2284C11.2203 11.3484 11.1403 11.4784 11.0603 11.6084L10.8503 11.8984C10.8503 11.8984 10.8303 11.9184 10.8203 11.9384C10.6303 12.1585 10.4603 12.3984 10.3003 12.6484C10.1103 12.9085 9.90034 13.1585 9.72034 13.4285L9.50034 13.7685C9.43034 13.8785 9.35034 13.9985 9.29034 14.1084L8.87034 14.7985L8.66034 15.1484L8.56034 15.3184L8.51034 15.4085L8.46034 15.4985L8.06034 16.1985C7.99034 16.3185 7.92034 16.4385 7.86034 16.5585C7.83034 16.6185 7.80034 16.6785 7.76034 16.7385C7.73034 16.7985 7.70034 16.8585 7.67034 16.9185C7.61034 17.0385 7.55034 17.1685 7.49034 17.2885C7.46034 17.3485 7.42034 17.4085 7.39034 17.4685V17.4885C7.39034 17.4885 7.42034 17.5085 7.44034 17.5285C7.44034 17.5385 7.45034 17.5585 7.46034 17.5785C7.46034 17.5985 7.46034 17.6185 7.46034 17.6385C7.46034 17.6385 7.46034 17.6585 7.46034 17.6785C7.46034 17.6885 7.46034 17.7085 7.46034 17.7385C7.46034 17.7385 7.46034 17.7385 7.46034 17.7485C7.46034 17.7485 7.44034 17.7485 7.44034 17.7385C7.42034 17.7285 7.40034 17.7085 7.40034 17.6485C7.40034 17.6485 7.39034 17.6385 7.39034 17.6285C7.39034 17.6285 7.39034 17.6085 7.39034 17.5785C7.39034 17.5785 7.39034 17.5485 7.39034 17.5385C7.39034 17.5385 7.39034 17.5385 7.36034 17.5685C7.35034 17.5885 7.33034 17.6085 7.31034 17.6185C7.31034 17.6185 7.31034 17.6085 7.31034 17.5985H7.30034L7.27034 17.5585L7.22034 17.5085C7.15034 17.4385 7.07034 17.3785 7.00034 17.3085C6.86034 17.1785 6.72034 17.0385 6.61034 16.8885C6.06034 16.3185 5.45034 15.8184 4.82034 15.3285C4.76034 15.2785 4.69034 15.2285 4.63034 15.1785C4.63034 15.1785 4.56034 15.0985 4.51034 15.0785C4.30034 14.9085 4.08034 14.7684 3.86034 14.6585L3.58034 14.4885C3.38034 14.3385 3.12034 14.0984 2.98034 14.1084C2.83034 14.1084 2.65034 14.0785 2.51034 14.1084L2.33034 14.1685C2.08034 14.0285 1.85034 13.9085 1.86034 14.1685C1.86034 14.2485 1.75034 14.1985 1.68034 14.1884L1.61034 14.1685C1.38034 14.1084 1.28034 14.1685 1.34034 14.3785C1.34034 14.4685 1.20034 14.4085 1.14034 14.4485C1.25034 14.5485 1.33034 14.6285 1.42034 14.7185C1.48034 14.9585 1.26034 14.7584 1.16034 14.6884C0.990337 14.5684 0.940337 14.6585 0.860337 14.6585C0.770337 14.6585 0.920337 14.7785 0.960337 14.8485C1.02034 14.9485 1.11034 15.0484 1.18034 15.1484C1.20034 15.1985 1.22034 15.2485 1.24034 15.3085C1.17034 15.2785 1.10034 15.2385 1.03034 15.2085C0.930337 15.1484 0.830337 15.0085 0.720337 15.0385C0.500337 14.9784 0.550337 15.0885 0.650337 15.2385C0.650337 15.2385 0.650337 15.3184 0.650337 15.3584C0.610337 15.4284 0.670337 15.4985 0.770337 15.5885C0.710337 15.5885 0.620337 15.4985 0.540337 15.4485C0.460337 15.3984 0.400337 15.3785 0.380337 15.4885C0.380337 15.4985 0.380337 15.5085 0.390337 15.5185C0.460337 15.6485 0.600337 15.7184 0.720337 15.8184L0.860337 15.9285L0.950337 16.0484C0.950337 16.0484 0.920337 16.0285 0.900337 16.0185C0.800337 15.9385 0.710337 15.8485 0.610337 15.7685C0.510337 15.6885 0.410337 15.6185 0.290337 15.5785L0.310337 15.6585C0.310337 15.6585 0.350337 15.7485 0.390337 15.7985C0.460337 15.9185 0.540337 16.0385 0.570337 16.1484C0.570337 16.1585 0.570337 16.1785 0.570337 16.1985C0.570337 16.1985 0.650337 16.2984 0.640337 16.3184C0.610337 16.3484 0.570337 16.2785 0.530337 16.2585C0.480337 16.2285 0.440337 16.1985 0.400337 16.1985C0.340337 16.1785 0.240337 16.0884 0.230337 16.1384C0.210337 16.2184 0.360337 16.2885 0.420337 16.3585L0.440337 16.4185ZM21.0203 4.43845L21.0003 4.46845C21.0003 4.46845 21.0203 4.44845 21.0303 4.43845H21.0203ZM21.0703 3.63845V3.61845V3.62845V3.63845ZM21.4303 2.35845C21.4303 2.35845 21.4303 2.36845 21.4303 2.37845V2.36845V2.35845ZM20.6103 3.04845C20.6103 3.04845 20.6103 3.04845 20.6103 3.05845H20.6303L20.6103 3.04845ZM20.1003 4.63845C20.1003 4.63845 20.0903 4.63845 20.0803 4.63845H20.1003ZM19.7003 3.94845H19.7103L19.6803 3.96845L19.7003 3.94845ZM19.1003 5.24845H19.0903C19.0903 5.24845 19.0903 5.24845 19.1003 5.24845ZM19.0203 4.05845C19.0203 4.05845 19.0603 3.99845 19.0903 4.00845C19.0603 4.00845 19.0403 4.03845 19.0103 4.06845L19.0203 4.05845ZM18.7303 6.97845C18.7303 6.97845 18.7603 6.94845 18.7403 6.97845H18.7303ZM18.3503 5.80845V5.82845V5.81845V5.80845ZM18.2003 5.13845C18.2003 5.13845 18.2003 5.13845 18.1903 5.13845H18.2003ZM18.0303 6.02845H18.0403C18.0403 6.02845 18.0303 6.02845 18.0203 6.02845H18.0303ZM17.8403 6.12845V6.14845C17.8403 6.14845 17.8403 6.14845 17.8403 6.13845V6.12845ZM17.7603 4.41845C17.7603 4.41845 17.7603 4.41845 17.7603 4.40845V4.41845ZM17.6303 6.44845C17.6103 6.46845 17.6603 6.44845 17.6303 6.44845V6.44845ZM16.8503 8.24845C16.8503 8.24845 16.8503 8.23845 16.8503 8.22845C16.8503 8.22845 16.8503 8.22845 16.8603 8.23845L16.8503 8.24845ZM16.7903 8.99845C16.7903 8.99845 16.7903 8.99845 16.8003 8.99845H16.7903ZM16.6503 9.30845C16.6503 9.30845 16.6303 9.32845 16.6203 9.33845C16.6203 9.32845 16.6303 9.31845 16.6403 9.30845H16.6503ZM16.3403 6.39845V6.41845C16.3403 6.41845 16.3403 6.40845 16.3403 6.39845ZM16.1303 9.02845C16.1303 9.02845 16.1103 9.04845 16.1103 9.05845C16.1103 9.05845 16.1203 9.03845 16.1303 9.02845ZM16.0803 10.2585L16.0503 10.2885C16.0503 10.2885 16.0603 10.2685 16.0803 10.2585ZM16.0203 8.98845C16.0203 8.98845 16.0303 8.98845 16.0403 8.98845L16.0103 9.02845C16.0103 9.02845 16.0103 8.99845 16.0203 8.98845ZM15.6903 9.81845C15.6903 9.81845 15.6903 9.81845 15.6903 9.82845C15.6903 9.82845 15.6903 9.82845 15.6803 9.82845V9.80845L15.6903 9.81845ZM15.4303 10.3584C15.4803 10.2984 15.5203 10.2285 15.5703 10.1685L15.7103 10.0085C15.6703 10.0685 15.6303 10.1185 15.5803 10.1685C15.5403 10.2185 15.4903 10.2785 15.4503 10.3285C15.4403 10.3485 15.4303 10.3584 15.4403 10.3584C15.4003 10.3884 15.4703 10.3584 15.4403 10.3584H15.4303ZM15.2303 9.20845C15.2303 9.20845 15.2203 9.22845 15.2103 9.22845C15.2103 9.22845 15.2203 9.20845 15.2303 9.20845ZM15.1703 11.7785C15.1703 11.7785 15.1703 11.7885 15.1803 11.7885C15.1703 11.7885 15.1603 11.7985 15.1503 11.7985L15.1703 11.7685V11.7785ZM13.5903 9.09845L13.5703 9.11845C13.5703 9.11845 13.5703 9.09845 13.5603 9.08845C13.5603 9.08845 13.5803 9.08845 13.5903 9.08845V9.09845ZM13.3003 10.3984C13.3003 10.3984 13.3003 10.3984 13.3103 10.4085C13.3103 10.4085 13.3103 10.4085 13.3103 10.3984H13.3003ZM12.9503 11.7284C12.9503 11.7284 12.9703 11.7085 12.9803 11.6985L12.9403 11.7585C12.9403 11.7585 12.9403 11.7385 12.9603 11.7284H12.9503ZM12.8503 15.2785C12.8503 15.2785 12.8503 15.2785 12.8503 15.2685V15.2785ZM12.8703 10.7385C12.8703 10.7385 12.8803 10.7385 12.8903 10.7385C12.8803 10.7485 12.8603 10.7584 12.8403 10.7785L12.8703 10.7284V10.7385ZM12.8703 13.6985C12.8703 13.6985 12.8503 13.7084 12.8403 13.7284H12.8303C12.8303 13.7284 12.8503 13.7085 12.8603 13.6985H12.8703ZM12.3803 11.7985H12.4003C12.3903 11.8085 12.3703 11.8184 12.3603 11.8285L12.3803 11.8085V11.7985ZM12.2003 16.9185C12.2003 16.9185 12.1903 16.9185 12.1803 16.9185L12.2003 16.8885C12.2003 16.8885 12.2003 16.8985 12.2003 16.9085V16.9185ZM12.2103 14.1385C12.2103 14.1385 12.1903 14.1585 12.1903 14.1785C12.1903 14.1685 12.2103 14.1585 12.2103 14.1385ZM11.8303 12.7785V12.7985H11.8103H11.7903C11.8003 12.7785 11.8203 12.7685 11.8303 12.7585V12.7785ZM11.5803 13.6084C11.5803 13.6084 11.5803 13.6285 11.5803 13.6385C11.5803 13.6385 11.5803 13.6385 11.5703 13.6385L11.5903 13.6084H11.5803ZM11.4303 12.0385C11.4103 12.0385 11.4303 12.0285 11.4303 12.0385V12.0385ZM11.2303 12.3584C11.2303 12.3584 11.2303 12.3584 11.2303 12.3685C11.2303 12.3685 11.2203 12.3785 11.2103 12.3885L11.2303 12.3584ZM11.2103 13.0785C11.2103 13.0785 11.2103 13.0785 11.2103 13.0885V13.0785ZM11.1203 12.5785L11.1003 12.5985C11.1003 12.5985 11.0903 12.5985 11.0803 12.5985C11.0903 12.5985 11.1003 12.5785 11.1103 12.5684L11.1203 12.5785ZM10.8303 16.7985V16.8185C10.8303 16.8185 10.8103 16.8185 10.8103 16.8085C10.8103 16.8085 10.8203 16.8085 10.8303 16.8085V16.7985ZM10.6303 13.3085C10.6303 13.3085 10.6303 13.3085 10.6403 13.3085C10.6403 13.3185 10.6203 13.3285 10.6203 13.3485C10.6203 13.3385 10.6203 13.3185 10.6303 13.3085ZM10.6303 15.4384L10.6103 15.4784C10.6103 15.4684 10.6103 15.4485 10.6103 15.4384C10.6103 15.4384 10.6303 15.4384 10.6403 15.4384H10.6303ZM10.6103 18.4885C10.6103 18.4885 10.6103 18.4885 10.6103 18.4985V18.4885ZM10.3003 19.9285V19.9485C10.3003 19.9485 10.3003 19.9385 10.3003 19.9285ZM10.2903 13.3184C10.2903 13.3184 10.2403 13.3885 10.2203 13.4285L10.1803 13.4784C10.2103 13.4184 10.2503 13.3685 10.2903 13.3184ZM10.0403 20.6985V20.6785V20.6885V20.6985ZM9.87034 16.4684C9.87034 16.4684 9.83034 16.5485 9.81034 16.5885C9.83034 16.5485 9.85034 16.5084 9.87034 16.4684ZM9.70034 15.4185C9.70034 15.4185 9.70034 15.4185 9.70034 15.4085V15.4185ZM9.62034 18.6685C9.62034 18.6685 9.60034 18.6985 9.60034 18.7085C9.60034 18.6985 9.61034 18.6785 9.62034 18.6685ZM9.49034 19.3285C9.49034 19.3285 9.49034 19.3485 9.49034 19.3585C9.49034 19.3585 9.49034 19.3585 9.49034 19.3485V19.3285ZM9.02034 19.2685C9.02034 19.2685 9.01034 19.2685 9.00034 19.2685C9.00034 19.2685 9.01034 19.2685 9.02034 19.2685ZM8.73034 22.7985C8.73034 22.7985 8.73034 22.8085 8.73034 22.8185C8.73034 22.8185 8.73034 22.8185 8.72034 22.8185V22.7885L8.73034 22.7985ZM8.64034 15.6084C8.64034 15.6084 8.64034 15.6084 8.64034 15.6185C8.64034 15.6185 8.64034 15.6185 8.64034 15.6084ZM8.07034 22.9285L8.02034 22.9085C8.02034 22.9085 8.05034 22.9085 8.07034 22.9285ZM7.56034 18.8085C7.56034 18.8085 7.56034 18.8085 7.56034 18.7985V18.8085ZM7.16034 18.2885H7.17034C7.17034 18.2885 7.17034 18.2885 7.16034 18.2885ZM7.01034 17.3185H7.00034V17.3085H7.01034V17.3185ZM6.88034 21.2385V21.2485L6.86034 21.2385H6.88034ZM6.67034 19.5085V19.5285V19.5385H6.66034C6.66034 19.5385 6.66034 19.5285 6.67034 19.5185V19.5085ZM5.91034 18.6085C5.91034 18.6085 5.91034 18.6185 5.91034 18.6285C5.91034 18.6285 5.91034 18.6185 5.91034 18.6085ZM5.84034 18.8385H5.83034V18.8285H5.84034V18.8385ZM5.65034 17.6485C5.65034 17.6485 5.65034 17.6485 5.64034 17.6485H5.65034ZM5.58034 17.3185C5.58034 17.3185 5.57034 17.3185 5.56034 17.3185C5.56034 17.3185 5.57034 17.3185 5.58034 17.3185ZM5.51034 20.5785C5.51034 20.5785 5.51034 20.5785 5.50034 20.5885C5.50034 20.5785 5.48034 20.5585 5.47034 20.5485L5.51034 20.5785ZM5.32034 20.3685C5.32034 20.3685 5.32034 20.3685 5.31034 20.3685C5.31034 20.3685 5.31034 20.3585 5.30034 20.3485L5.33034 20.3785L5.32034 20.3685ZM4.90034 20.0285C4.90034 20.0285 4.90034 20.0285 4.90034 20.0185L4.92034 20.0385C4.92034 20.0385 4.92034 20.0385 4.91034 20.0385L4.90034 20.0285ZM4.93034 20.0285C4.93034 20.0285 4.96034 20.0585 4.98034 20.0685C4.95034 20.0485 4.92034 20.0385 4.89034 20.0185C4.89034 20.0185 4.89034 19.9985 4.93034 20.0285ZM4.45034 16.9485C4.45034 16.9485 4.45034 16.9485 4.46034 16.9485H4.45034ZM3.21034 17.7485V17.7685V17.7585V17.7485ZM3.71034 17.2885C3.71034 17.2885 3.71034 17.2885 3.71034 17.2985V17.2885ZM3.58034 14.8285C3.58034 14.8285 3.58034 14.8285 3.58034 14.8385H3.56034V14.8285H3.58034ZM3.29034 18.6085C3.29034 18.6085 3.29034 18.6085 3.28034 18.5985H3.29034V18.6085ZM3.24034 16.7085V16.6985C3.24034 16.6985 3.24034 16.6985 3.25034 16.7085H3.24034ZM3.04034 18.6285C3.04034 18.6285 3.04034 18.6385 3.05034 18.6485L3.03034 18.6285C3.03034 18.6285 3.04034 18.6285 3.05034 18.6285H3.04034ZM2.89034 17.3285H2.91034V17.3485C2.91034 17.3485 2.90034 17.3385 2.89034 17.3285ZM2.84034 15.7485C2.84034 15.7485 2.84034 15.7485 2.84034 15.7585V15.7485ZM2.76034 16.5785H2.77034C2.77034 16.5785 2.77034 16.5785 2.76034 16.5785ZM2.72034 17.6185C2.72034 17.6185 2.72034 17.6285 2.72034 17.6385H2.71034V17.6285L2.72034 17.6185ZM2.72034 18.3885C2.72034 18.3885 2.74034 18.3985 2.75034 18.4085L2.77034 18.4285C2.77034 18.4285 2.73034 18.4085 2.71034 18.3985L2.72034 18.3885ZM2.26034 17.5985C2.26034 17.5985 2.23034 17.5785 2.22034 17.5785L2.19034 17.5485C2.19034 17.5485 2.24034 17.5785 2.26034 17.5985ZM2.11034 16.7285C2.11034 16.7285 2.11034 16.7285 2.11034 16.7385H2.10034C2.10034 16.7385 2.10034 16.7385 2.10034 16.7285H2.11034ZM1.82034 17.6485L1.85034 17.6785L1.81034 17.6385L1.82034 17.6485ZM1.56034 16.5085C1.56034 16.5085 1.53034 16.4885 1.52034 16.4784C1.53034 16.4885 1.55034 16.4985 1.56034 16.5185V16.5085ZM1.47034 16.4385C1.47034 16.4385 1.49034 16.4584 1.50034 16.4684H1.49034C1.49034 16.4684 1.48034 16.4385 1.49034 16.4385H1.47034ZM1.38034 15.6585C1.38034 15.6785 1.36034 15.6585 1.36034 15.6385H1.38034V15.6585ZM1.36034 15.7284C1.36034 15.7284 1.37034 15.7485 1.38034 15.7485C1.36034 15.7284 1.34034 15.7185 1.32034 15.6985C1.33034 15.6985 1.35034 15.7184 1.36034 15.7284ZM1.21034 16.2785C1.21034 16.2785 1.21034 16.2884 1.21034 16.2984C1.21034 16.2984 1.19034 16.2885 1.18034 16.2785C1.18034 16.2785 1.19034 16.2785 1.21034 16.2785Z" fill="#E1BAB5"/>
<path d="M23.4105 1.17969C23.2305 1.32969 23.1105 1.43969 22.9805 1.54969C23.1405 1.46969 23.3005 1.39969 23.4105 1.17969Z" fill="#E1BAB5"/>
<path d="M19.8502 6.4583C19.8502 6.4583 19.7902 6.5583 19.8302 6.5783C19.8602 6.5983 19.9102 6.5783 19.9602 6.5283C20.0102 6.4683 20.0102 6.4283 19.9902 6.3983C19.9602 6.3683 19.9102 6.3983 19.8502 6.4683V6.4583Z" fill="#E1BAB5"/>
<path d="M22.6798 0.129201C22.7398 0.0892008 22.7498 0.0492008 22.7398 0.0192008C22.6998 0.00920084 22.6698 -0.0107992 22.5998 0.0492008C22.5498 0.0892008 22.4898 0.159201 22.5198 0.189201C22.5498 0.219201 22.6198 0.169201 22.6798 0.129201Z" fill="#E1BAB5"/>
<path d="M22.25 1.34906C22.37 1.26906 22.5 1.19906 22.61 1.03906C22.46 1.14906 22.31 1.18906 22.25 1.34906Z" fill="#E1BAB5"/>
<path d="M23.0104 0.53125C22.8404 0.65125 22.7304 0.70125 22.6904 0.84125C22.8204 0.77125 22.9004 0.70125 23.0104 0.53125Z" fill="#E1BAB5"/>
<path d="M23.4502 1.76953L23.2002 1.98953L23.0702 2.09953C23.0702 2.09953 22.9802 2.16953 22.9402 2.20953C22.7302 2.29953 22.5902 2.49953 22.4102 2.63953C22.2802 2.75953 22.1402 2.87953 21.9902 3.01953C22.2102 2.96953 22.3002 2.78953 22.4302 2.66953C22.6402 2.57953 22.7802 2.37953 22.9602 2.23953C23.0002 2.19953 23.0402 2.16953 23.0902 2.12953L23.2202 2.01953L23.4702 1.79953L23.4502 1.76953Z" fill="#E1BAB5"/>
<path d="M22.4501 1.72094C22.3401 1.74094 22.2701 1.83094 22.2001 1.89094C22.1601 1.94094 22.0601 2.00094 22.1001 2.02094C22.1601 2.05094 22.2301 1.94094 22.2901 1.89094C22.3501 1.83094 22.4301 1.79094 22.4501 1.71094V1.72094Z" fill="#E1BAB5"/>
<path d="M21.8099 0.699844C21.8099 0.699844 21.8799 0.629844 21.9199 0.589844C21.8799 0.589844 21.8499 0.599844 21.8099 0.629844C21.7699 0.659844 21.7299 0.699844 21.6699 0.759844C21.6999 0.759844 21.7199 0.739844 21.7499 0.729844C21.7699 0.719844 21.7999 0.709844 21.8199 0.689844L21.8099 0.699844Z" fill="#E1BAB5"/>
<path d="M21.55 0.920313C21.55 0.920313 21.62 0.860312 21.59 0.820312C21.57 0.820312 21.54 0.820313 21.5 0.850313C21.46 0.880313 21.44 0.910313 21.46 0.930313C21.48 0.950313 21.5 0.950313 21.55 0.920313Z" fill="#E1BAB5"/>
<path d="M22.1996 3.08984C22.0696 3.15984 21.9796 3.25984 21.8896 3.36984C21.9996 3.30984 22.0996 3.21984 22.1996 3.08984Z" fill="#E1BAB5"/>
<path d="M19.2598 7.01094C19.3798 6.92094 19.4598 6.82094 19.5398 6.71094C19.4498 6.80094 19.3398 6.87094 19.2598 7.01094Z" fill="#E1BAB5"/>
<path d="M23.2005 3.0693C23.2005 3.0693 23.1505 3.1393 23.1805 3.1493C23.2005 3.1493 23.2505 3.1393 23.2705 3.1193C23.3205 3.0893 23.3005 3.0593 23.2905 3.0393C23.2705 3.0193 23.2305 3.0393 23.2005 3.0693Z" fill="#E1BAB5"/>
<path d="M22.1401 3.94086C22.1401 3.94086 22.0701 4.01086 22.0801 4.03086C22.0901 4.06086 22.1301 4.03086 22.1701 4.00086C22.2001 3.97086 22.2301 3.94086 22.2301 3.91086C22.2101 3.88086 22.1701 3.91086 22.1401 3.94086Z" fill="#E1BAB5"/>
<path d="M23.6204 0.441406C23.5204 0.551406 23.4504 0.601406 23.4404 0.691406C23.5004 0.621406 23.5904 0.581406 23.6204 0.441406Z" fill="#E1BAB5"/>
<path d="M22.9002 3.26172C22.8002 3.32172 22.7402 3.37172 22.6602 3.48172C22.7802 3.40172 22.8502 3.35172 22.9002 3.26172Z" fill="#E1BAB5"/>
<path d="M18.9704 7.54897C18.9704 7.54897 18.9704 7.55897 18.9704 7.56897V7.54897C18.9304 7.60897 18.8404 7.65897 18.8504 7.72897C18.8504 7.72897 18.9004 7.70897 18.9304 7.69897C19.0704 7.59897 19.2004 7.49897 19.3204 7.36897C19.4404 7.24897 19.5404 7.10897 19.6204 6.95897C19.5204 6.93897 19.4804 7.07897 19.4104 7.12897C19.3404 7.19897 19.2704 7.27897 19.2004 7.35897C19.1304 7.43897 19.0604 7.50897 18.9704 7.55897V7.54897Z" fill="#E1BAB5"/>
<path d="M0 15.4805C0.05 15.5405 0.08 15.5905 0.17 15.6105C0.11 15.5805 0.11 15.5005 0 15.4805Z" fill="#E1BAB5"/>
<path d="M8.73977 23.8988C8.73977 23.8988 8.72977 23.8887 8.71977 23.8787C8.70977 23.8687 8.68977 23.8588 8.67977 23.8388C8.61977 23.7888 8.56977 23.7587 8.50977 23.7188C8.56977 23.7888 8.62976 23.8488 8.68976 23.8888C8.69976 23.8988 8.71976 23.9088 8.72976 23.9188C8.72976 23.9188 8.73977 23.9188 8.74977 23.9288V23.9088C8.76977 23.8688 8.77977 23.8288 8.79977 23.7788C8.77977 23.8088 8.75977 23.8288 8.73977 23.8588V23.8787V23.8988Z" fill="#E1BAB5"/>
</g>
<defs>
<clipPath id="clip0_580_9572">
<rect width="23.87" height="23.95" fill="white"/>
</clipPath>
</defs>
</svg>
