<svg width="109" height="140" viewBox="0 0 109 140" fill="none" xmlns="http://www.w3.org/2000/svg">
<g clip-path="url(#clip0_548_2785)">
<path d="M107.91 0.777778V139.222H0.467048V0.777778H107.91ZM108.688 0H-0.311523V140H108.688V0Z" fill="#202533"/>
<rect width="108.221" height="140" fill="#323849"/>
<path d="M81.8276 52.8109C82.3726 52.8109 82.9955 52.4998 83.6183 51.9553C84.319 51.4109 84.6305 50.8664 84.6305 50.322C84.6305 49.622 84.2412 48.8442 83.3848 48.0664C82.6062 47.3664 81.8276 46.9775 81.049 46.9775C80.504 46.9775 79.959 47.3664 79.414 48.0664C78.7912 48.7664 78.5576 49.3886 78.5576 49.9331C78.5576 50.322 78.6355 50.7109 78.869 51.0998C79.0248 51.4886 79.2583 51.7998 79.5698 52.0331C79.8812 52.2664 80.2705 52.4998 80.6598 52.6553C80.9712 52.7331 81.4383 52.8109 81.8276 52.8109Z" fill="#C1D0CD"/>
<path d="M54.6556 93.9556C54.6556 93.1001 54.2663 92.2445 53.5656 91.389C52.787 90.5334 52.0085 90.1445 51.2299 90.1445C49.4392 90.1445 48.5049 92.4001 48.5049 96.9112C48.5049 97.689 48.5827 98.3112 48.7385 98.7779C52.7092 96.1334 54.6556 94.5001 54.6556 93.9556Z" fill="#C1D0CD"/>
<path d="M43.5996 55.8446C43.5996 56.7001 43.8332 57.8668 44.3782 59.189C45.001 60.7446 45.7018 61.5224 46.4025 61.5224C47.4146 61.5224 48.7382 61.289 50.451 60.7446V51.9557C49.6725 51.4112 48.5825 50.5557 47.181 49.4668C46.3246 49.4668 45.4682 50.3224 44.6896 52.0335C43.9889 53.6668 43.5996 54.9112 43.5996 55.8446Z" fill="#C1D0CD"/>
<path d="M81.5939 60.5888C81.9832 60.8999 82.4503 61.1332 82.9175 61.2888C83.3846 61.4443 83.8517 61.5221 84.3189 61.5221C85.2532 61.5221 85.9539 61.3665 86.3432 60.9777C86.7325 60.6665 86.8882 59.9665 86.8882 59.0332C86.8882 58.0999 86.5767 57.2443 85.9539 56.3888C85.2532 55.4554 84.4746 54.9888 83.6182 54.9888C82.8396 54.9888 82.1389 55.3777 81.3603 56.2332L79.6475 58.2554C79.881 58.7221 80.1925 59.1888 80.5039 59.5777C80.8153 59.9665 81.2046 60.3554 81.5939 60.5888Z" fill="#C1D0CD"/>
<path d="M0 140H109V0H0V140ZM53.955 104.456C54.0329 104.456 54.4221 104.378 54.9671 104.3C55.5121 104.222 56.3686 104.067 57.4586 103.911C55.9014 105.389 54.1886 106.167 52.2421 106.167C50.2957 106.167 48.6607 105.311 47.415 103.6C46.2471 102.044 45.7021 100.256 45.7021 98.2333C45.7021 95.9778 46.2471 93.9556 47.415 92.2444C48.7386 90.2222 50.4514 89.2111 52.5536 89.2111C53.7214 89.2111 54.8114 89.6 55.9014 90.3C57.1471 91.0778 57.77 92.0111 57.77 93.1C57.77 93.5667 56.2907 94.8889 53.3321 96.9111C50.3736 98.9333 48.8943 100.1 48.8164 100.411C50.2957 103.056 52.0086 104.456 53.955 104.456ZM68.7479 99.0111C67.2686 102.9 66.1786 105.233 65.5557 106.089H64.1543C63.6871 104.222 63.2979 102.667 62.9864 101.422C62.675 100.178 62.4414 99.3222 62.2857 98.7778C61.8186 97.4556 61.3514 96.2111 60.8064 95.0444C60.2614 93.8778 59.7164 92.8667 59.0157 91.8556C59.3271 91.6222 59.7164 91.3111 60.1836 90.9222C60.6507 90.5333 61.1957 90.1444 61.7407 89.6C62.2079 90.4556 62.5971 91.4667 62.9864 92.5556C63.3757 93.6444 63.8429 94.8889 64.2321 96.2889C64.6214 97.4556 64.9329 98.6222 65.2443 99.7889C65.5557 100.956 65.945 102.122 66.2564 103.289C68.2807 98.7 69.2929 95.7444 69.2929 94.3444C69.2929 93.4889 69.215 92.8667 68.9814 92.6333C68.7479 92.3222 68.3586 92.2444 67.7357 92.2444C67.7357 92.2444 67.58 92.2444 67.4243 92.2444C67.2686 92.2444 66.9571 92.2444 66.5679 92.3222C66.5679 92.1667 66.5679 92.0111 66.5679 91.7C66.5679 91.3889 66.6457 91.1556 66.7236 90.8444C66.8014 90.5333 66.9571 90.3 67.1907 89.9889C67.3464 89.7556 67.58 89.5222 67.8136 89.3667C68.0471 89.2111 68.3586 89.1333 68.5921 89.1333C69.5264 89.1333 70.1493 89.3667 70.4607 89.8333C70.7721 90.3 71.0057 91 71.0057 91.9333C71.0836 92.6333 70.305 95.0444 68.7479 99.0111ZM64.4657 73.6556C64.5436 73.9667 64.6214 74.2778 64.6993 74.5889C64.7771 74.9 64.7771 75.2889 64.855 75.6778H65.7893V76.1444H64.855V83.6889C64.855 83.8444 65.0886 84.3889 65.4779 85.3222H62.5971C63.1421 84.4667 63.4536 83.8444 63.4536 83.4556V76.0667H62.5971V75.6778H63.5314C63.6093 75.2889 63.6093 74.9778 63.6093 74.6667C63.6093 74.3556 63.6871 74.0444 63.6871 73.8111C63.765 72.3333 63.9207 71.3222 64.1543 70.8556C64.5436 69.9222 65.4 69.4556 66.6457 69.4556C66.9571 69.4556 67.1907 69.5333 67.5021 69.7667C67.8136 70 67.8914 70.2333 67.8914 70.4667C67.8914 70.8556 67.5021 71.3222 66.6457 72.0222C66.4121 71.0889 66.0229 70.6222 65.4 70.6222C65.0886 70.6222 64.855 70.7778 64.6214 71.0111C64.4657 71.2444 64.31 71.5556 64.31 71.8667C64.1543 72.1778 64.2321 72.8 64.4657 73.6556ZM82.2171 105.856C81.9836 105.389 81.8279 104.767 81.75 104.144C79.2586 105.467 77.7014 106.167 77.0786 106.167C75.5993 106.167 74.4314 105.389 73.4193 103.756C72.5629 102.356 72.1736 100.8 72.1736 99.2444C72.1736 97.6111 73.03 95.5889 74.8207 93.1778C76.6893 90.7667 78.4021 89.5222 80.0371 89.5222C81.4386 90.6889 82.9957 91.6222 84.8643 92.3222C84.2414 93.4889 84.0079 94.1889 84.0079 94.4222V102.744C84.0079 103.522 84.3193 104.611 85.02 105.856H82.2171ZM90.2364 79.6444C90.2364 84.3889 90.1586 88.0444 90.1586 90.5333C90.1586 93.0222 90.1586 94.4222 90.1586 94.6556V97.3778C90.1586 102.044 90.5479 104.922 91.2486 105.856H86.4214C87.1221 104.3 87.4336 103.289 87.4336 102.9C87.4336 101.967 87.4336 100.722 87.4336 99.3222C87.4336 97.9222 87.4336 96.2111 87.4336 94.2667C87.4336 92.3222 87.4336 90.6889 87.4336 89.2111C87.4336 87.8111 87.4336 86.5667 87.4336 85.6333C87.4336 84.8556 87.3557 84.3111 87.2779 84C87.1221 83.6111 86.8107 83.1444 86.3436 82.6778C86.5771 82.5222 86.8886 82.3667 87.2 82.0556C87.5114 81.8222 87.9007 81.5111 88.29 81.1222C88.6793 80.7333 89.0686 80.4222 89.38 80.1889C89.7693 79.9556 90.0029 79.7222 90.2364 79.6444ZM78.1686 54.8333C77.8571 54.4444 77.6236 54.2111 77.5457 54.0556C77.2343 53.5111 77.0786 52.5 77.0786 51.0222C77.0786 49.3889 77.5457 48.0667 78.5579 47.0556C79.57 46.0444 80.8936 45.5778 82.5286 45.5778C83.6964 45.5778 85.8764 46.3556 89.0686 47.8333L85.4093 51.4889C85.7207 51.8 86.0321 52.1889 86.4993 52.6556C86.8886 53.1222 87.4336 53.6667 87.9786 54.2889C88.9129 55.3 89.38 56.4667 89.38 57.7889C89.38 59.4222 88.6793 60.9 87.2 62.1444C85.7986 63.3111 84.2414 63.9333 82.5286 63.9333C81.3607 63.9333 80.115 63.5444 78.8693 62.8444C77.4679 62.0667 76.6114 61.6778 76.3779 61.6778C74.8207 63.5444 73.7307 64.9444 73.2636 65.9556C72.485 67.4333 72.0957 69.1444 72.0957 71.0889C72.0957 71.2444 72.1736 71.3222 72.2514 71.4778C72.3293 71.6333 72.485 71.7111 72.6407 71.8667C72.7964 72.0222 72.8743 72.1 73.03 72.2556C73.1079 72.4111 73.1857 72.4889 73.2636 72.6444C73.3414 73.0333 73.3414 73.5 73.2636 73.8889C73.1079 74.4333 72.8743 74.6667 72.5629 74.6667C72.0179 74.6667 71.7064 74.3556 71.4729 73.7333C71.3171 73.3444 71.3171 72.8 71.5507 71.9444C71.5507 68.2889 73.03 64.6333 75.9107 61.2111C76.3779 60.6667 76.9229 60.0444 77.5457 59.2667C78.1686 58.4889 78.9471 57.5556 79.8036 56.5444C79.025 55.6889 78.5579 55.1444 78.1686 54.8333ZM62.9864 50.0889C64.31 48.0667 66.0229 47.0556 68.125 47.0556C69.2929 47.0556 70.3829 47.4444 71.4729 48.1444C72.7186 48.9222 73.3414 49.8556 73.3414 50.9444C73.3414 51.4111 71.8621 52.7333 68.9036 54.7556C65.945 56.7778 64.4657 57.9444 64.3879 58.2556C65.945 61.0556 67.6579 62.4556 69.5264 62.4556C69.6043 62.4556 69.9936 62.3778 70.5386 62.3C71.0836 62.2222 71.94 62.0667 73.03 61.9111C71.4729 63.3889 69.76 64.1667 67.8136 64.1667C65.8671 64.1667 64.2321 63.3111 62.9864 61.6C61.8186 60.0444 61.2736 58.2556 61.2736 56.2333C61.2736 53.8222 61.8186 51.8778 62.9864 50.0889ZM56.3686 41.9222C56.2129 41.5333 55.9014 41.0667 55.4343 40.6C55.6679 40.4444 55.9793 40.2889 56.2907 39.9778C56.6021 39.7444 56.9914 39.4333 57.3807 39.0444C57.77 38.6556 58.1593 38.3444 58.4707 38.1111C58.7821 37.8 59.0157 37.6444 59.2493 37.4889C59.2493 42.2333 59.1714 45.8889 59.1714 48.3778C59.1714 50.8667 59.1714 52.2667 59.1714 52.5V55.2222C59.1714 59.8889 59.5607 62.7667 60.2614 63.7H55.4343C56.135 62.1444 56.4464 61.1333 56.4464 60.7444C56.4464 59.8111 56.4464 58.5667 56.4464 57.1667C56.4464 55.7667 56.4464 54.0556 56.4464 52.1111C56.4464 50.1667 56.5243 48.5333 56.5243 47.0556C56.5243 45.6556 56.5243 44.4111 56.5243 43.4778C56.5243 42.7778 56.5243 42.2333 56.3686 41.9222ZM57.225 67.7444C57.6921 67.9 58.2371 68.2111 58.9379 68.6778C58.9379 68.7556 58.9379 68.7556 58.9379 68.8333C58.9379 69.0667 58.86 69.3 58.7043 69.5333C57.6143 68.7556 56.4464 68.3667 55.045 68.3667C53.3321 68.3667 52.0086 68.9889 51.0743 70.1556C50.2179 71.2444 49.8286 72.6444 49.8286 74.4333C49.8286 76.7667 50.3736 78.8667 51.3857 80.8111C52.6314 83.1444 54.2664 84.3111 56.3686 84.3111C58.7821 84.3111 59.95 82.8333 59.95 79.8778C59.95 77.9333 59.4829 76.0667 58.6264 74.1222C57.5364 71.7889 56.135 70.6222 54.5 70.6222C53.8771 70.6222 53.3321 70.9333 52.7871 71.6333C52.2421 72.3333 52.0086 72.9556 52.0086 73.6556C52.0086 74.1222 52.2421 74.5111 52.6314 74.9C53.0986 75.2889 53.4879 75.5222 53.955 75.5222C54.2664 75.5222 54.5 75.3667 54.5 75.0556C54.5 74.9778 54.5 74.7444 54.5 74.2778C54.5 73.6556 54.7336 73.3444 55.2007 73.3444C55.9014 73.3444 56.2907 73.7333 56.2907 74.4333C56.2907 74.9778 56.0571 75.4444 55.5121 75.9111C54.9671 76.3778 54.4221 76.5333 53.8771 76.5333C53.0207 76.5333 52.2421 76.1444 51.6971 75.3667C51.1521 74.6667 50.8407 73.8889 50.8407 72.9556C50.8407 71.6333 51.23 70.7 51.9307 70C52.6314 69.3 53.6436 68.9889 54.9671 68.9889C55.8236 68.9889 56.68 69.1444 57.4586 69.4556C60.3393 70.6222 61.8186 73.4222 61.8186 77.6222C61.8186 79.9556 61.2736 81.9 60.1057 83.4556C58.86 85.1667 57.0693 86.1 54.8893 86.1C54.4221 86.1 53.6436 85.8667 52.6314 85.4778C50.9964 84.8556 49.7507 83.6889 48.8943 82.0556C48.1157 80.6556 47.8043 78.9444 47.8043 77C47.8043 74.3556 48.4271 72.1778 49.595 70.3889C50.9964 68.2889 52.865 67.2778 55.3564 67.2778C56.135 67.5111 56.7579 67.5889 57.225 67.7444ZM53.8771 50.2444C53.2543 51.4111 52.9429 52.1111 52.9429 52.3444V60.6667C52.9429 61.4444 53.2543 62.5333 53.955 63.7778H51.23C50.9964 63.3111 50.8407 62.6889 50.7629 62.0667C48.2714 63.3889 46.7143 64.0889 46.0914 64.0889C44.6121 64.0889 43.4443 63.3111 42.4321 61.6778C41.5757 60.2778 41.1864 58.7222 41.1864 57.1667C41.1864 55.5333 42.0429 53.5111 43.8336 51.1C45.7021 48.6889 47.415 47.4444 49.05 47.4444C50.4514 48.6889 52.0086 49.6222 53.8771 50.2444ZM45.6243 35.6222C42.0429 40.0556 40.2521 43.0889 40.2521 44.6444C40.2521 44.8 40.4857 45.2667 40.9529 46.2C41.4979 47.0556 41.7314 47.8333 41.7314 48.3778C41.7314 49.3111 41.3421 49.7778 40.6414 49.7778C39.9407 49.7778 39.5514 49 39.5514 47.4444C39.5514 44.2556 40.0964 41.7667 41.2643 40.0556C40.4079 39.4333 39.8629 38.8889 39.5514 38.3444C39.4736 38.2667 39.3957 38.0333 39.3179 37.6444C39.1621 37.2556 39.0064 36.7889 38.8507 36.0889C38.695 36.0889 38.5393 36.1667 38.2279 36.1667C37.9164 36.1667 37.605 36.1667 37.1379 36.1667C36.4371 36.1667 35.8143 36.4 35.2693 36.7889C35.1914 36.8667 35.0357 36.9444 34.8021 37.1778C34.5686 37.4111 34.1793 37.7222 33.79 38.1889V60.0444C33.79 61.2111 34.4907 62.0667 35.8143 62.6111C36.0479 62.7667 37.2936 63.0778 39.5514 63.5444C40.875 63.7778 41.5757 64.2444 41.5757 64.8667C41.5757 65.3333 41.42 65.5667 41.0307 65.5667C40.7193 65.5667 40.33 65.3333 40.0186 64.9444C39.8629 64.7889 39.785 64.6333 39.6293 64.4778C39.4736 64.3222 39.3957 64.1667 39.24 63.9333H25.3814C24.7586 65.0222 24.1357 65.5667 23.5907 65.5667C23.2014 65.5667 23.0457 65.3333 23.0457 64.8667C23.0457 64.3222 23.6686 63.8556 24.9921 63.5444C27.25 63.0778 28.4957 62.7667 28.7293 62.6111C30.0529 62.0667 30.7536 61.2111 30.7536 60.0444V38.1889C29.5857 37.1 28.8071 36.4778 28.4957 36.3222C28.0286 36.2444 27.6393 36.2444 27.1721 36.1667C26.705 36.1667 26.2379 36.0889 25.7707 36.0111C25.3814 37.7222 24.6029 39.0444 23.2793 39.9C24.4471 41.6111 24.9921 44.0222 24.9921 47.2889C24.9921 47.6778 24.9921 47.9889 24.9921 48.2222C24.9921 48.4556 24.9921 48.6889 24.9143 48.8444C24.7586 49.3889 24.4471 49.7 23.9021 49.7C23.2014 49.7 22.89 49.2333 22.89 48.3C22.89 47.7556 23.1236 47.0556 23.5907 46.2C24.1357 45.2667 24.3693 44.8 24.3693 44.6444C24.3693 43.4778 23.6686 41.9222 22.345 39.9C21.8 39.2 21.255 38.4222 20.71 37.7222C20.165 37.0222 19.62 36.3222 19.075 35.5444H45.6243V35.6222ZM25.07 86.7222C25.07 86.4889 25.07 86.1778 24.9921 85.9444C24.8364 85.7889 24.6807 85.6333 24.4471 85.6333C23.2014 85.6333 22.5007 85.7111 22.345 85.7889C22.2671 85.7889 22.1893 85.8667 21.9557 86.0222C21.7221 86.1778 21.4107 86.3333 21.0214 86.4889C20.4764 86.8 20.0093 86.9556 19.62 86.9556C18.7636 86.9556 18.2964 86.6444 18.2964 86.0222C18.2964 85.7111 18.53 85.4778 18.9193 85.4778C19.2307 85.4778 19.5421 85.5556 19.8536 85.7889C20.165 85.9444 20.3986 86.1 20.4764 86.1C21.0214 86.1 22.2671 85.1667 24.2136 83.3778C25.615 82.1333 26.7829 81.1222 27.795 80.2667C28.8071 79.4111 29.5857 78.7889 30.2864 78.3222C32.8557 76.5333 35.1136 75.6 37.06 75.6C38.9286 75.6 40.4079 76.1444 41.4979 77.1556C42.5879 78.1667 43.1329 79.5667 43.1329 81.4333C43.1329 83.5333 42.2764 85.4 40.4857 87.1111C39.8629 87.7333 38.0721 89.0556 35.2693 91.0778C41.4979 94.0333 44.5343 98.1556 44.5343 103.367C44.5343 104.067 44.145 105 43.4443 106.089C42.7436 107.256 42.4321 108.267 42.4321 109.122C42.4321 112.933 43.9114 115.5 46.87 116.822C47.5707 117.133 48.0379 117.289 48.3493 117.289C48.8943 117.289 49.2057 117.056 49.4393 116.589C49.6729 116.2 49.9064 115.967 50.0621 115.967C50.685 115.967 50.9964 116.278 50.9964 116.822C50.9964 117.289 50.7629 117.678 50.3736 117.989C49.9843 118.378 49.5171 118.533 49.05 118.533C48.505 118.533 47.5707 118.144 46.0914 117.367C43.4443 115.967 41.965 114.256 41.6536 112.311L40.7193 105.078C40.1743 101.422 39.3957 98.6222 38.4614 96.6778C37.1379 93.9556 35.5029 92.6333 33.4007 92.6333C32.8557 92.6333 32.2329 92.7111 31.61 92.9444C30.8314 93.2556 30.52 93.6444 30.52 94.1111C30.52 94.2667 30.52 94.3444 30.52 94.4222V94.7333C30.52 96.2111 30.1307 96.9889 29.3521 96.9889C28.9629 96.9889 28.8071 96.7556 28.8071 96.2889C28.8071 95.8222 28.885 95.2778 29.1186 94.7333C29.43 94.1111 30.7536 92.8667 33.0893 91.0778C34.335 90.1444 35.3471 89.4444 36.0479 88.8222C36.7486 88.2 37.2157 87.8111 37.4493 87.5778C39.0843 86.0222 39.8629 84.4667 39.8629 82.9111C39.8629 81.6667 39.24 80.5 38.0721 79.4889C36.9043 78.4 35.7364 77.8556 34.4907 77.8556C32.8557 77.8556 31.3764 78.4778 30.2086 79.8C29.0407 81.0444 28.4179 82.6 28.4179 84.3111V102.667C28.4179 103.756 28.9629 104.456 30.1307 104.844C30.2086 104.844 31.2207 105.078 33.1671 105.389C33.6343 104.533 34.1793 104.144 34.88 104.144C35.3471 104.144 35.5029 104.378 35.5029 104.844C35.5029 105.233 35.1914 105.544 34.6464 105.778C34.1793 105.933 33.79 106.011 33.4007 106.011H20.165C19.3864 107.022 18.7636 107.567 18.2964 107.567C17.985 107.567 17.8293 107.333 17.8293 106.867C17.8293 106.167 18.4521 105.7 19.6979 105.467C20.3207 105.311 20.8657 105.233 21.4886 105.078C22.0336 105 22.6564 104.844 23.2793 104.767C24.525 104.378 25.1479 103.6 25.1479 102.433V87.6556C25.07 87.2667 25.07 86.9556 25.07 86.7222Z" fill="#C1D0CD"/>
<path d="M70.305 51.878C70.305 51.0224 69.9157 50.1669 69.215 49.3113C68.4364 48.4558 67.6579 48.0669 66.8793 48.0669C65.0886 48.0669 64.1543 50.3225 64.1543 54.8336C64.1543 55.6113 64.2322 56.2336 64.3879 56.7002C68.2807 54.0558 70.305 52.4224 70.305 51.878Z" fill="#C1D0CD"/>
<path d="M75.7548 94.1887C74.9762 95.7443 74.5869 96.9887 74.5869 97.9221C74.5869 98.7776 74.8205 99.9443 75.3655 101.267C75.9883 102.822 76.6891 103.6 77.3898 103.6C78.4019 103.6 79.7255 103.367 81.4383 102.822V94.111C80.6598 93.5665 79.5698 92.711 78.1683 91.6221C77.3898 91.6221 76.6112 92.4776 75.7548 94.1887Z" fill="#C1D0CD"/>
</g>
<defs>
<clipPath id="clip0_548_2785">
<rect width="109" height="140" fill="white"/>
</clipPath>
</defs>
</svg>
